M48
METRIC,LZ,000.000
;FILE_FORMAT=3:3
;TYPE=PLATED
;Layer: PTH_Through
;EasyEDA v6.5.28, 2023-05-24 19:42:16
;10
;Gerber Generator version 0.2
;Holesize 1 = 0.305 mm
T01C0.305
;Holesize 2 = 0.701 mm
T02C0.701
;Holesize 3 = 0.800 mm
T03C0.800
;Holesize 4 = 0.889 mm
T04C0.889
;Holesize 5 = 0.901 mm
T05C0.901
;Holesize 6 = 0.915 mm
T06C0.915
;Holesize 7 = 1.001 mm
T07C1.001
;Holesize 8 = 1.200 mm
T08C1.200
;Holesize 9 = 3.200 mm
T09C3.200
%
G05
G90
T01
X053677Y038464
X059172Y037350
T02
X145293Y042545
X145293Y041275
X145293Y040005
T03
X004572Y065800
X004572Y061200
X002272Y063500
X006872Y063500
X006199Y065127
X002945Y061873
X006199Y061873
X002945Y065127
X004699Y002300
X004699Y-002300
X002399Y000000
X006999Y000000
X006326Y001627
X003072Y-001627
X006326Y-001627
X003072Y001627
X148082Y065800
X148082Y061200
X145782Y063500
X150382Y063500
X149709Y065127
X146455Y061873
X149709Y061873
X146455Y065127
X148082Y002300
X148082Y-002300
X145782Y000000
X150382Y000000
X149709Y001627
X146455Y-001627
X149709Y-001627
X146455Y001627
X032512Y002664G85X032512Y002669
X029972Y002664G85X029972Y002669
T04
X011557Y015621
X011557Y018161
X011557Y020701
X011557Y023241
X011557Y025781
X011557Y028321
X011557Y030861
X011557Y033401
X011557Y035941
X011557Y038481
X011557Y041021
X011557Y043561
X011557Y046101
X011557Y048641
X011557Y051181
X011557Y053721
X011557Y056261
X011557Y058801
X011557Y061341
X011557Y063881
X047752Y015621
X047752Y018161
X047752Y020701
X047752Y023241
X047752Y025781
X047752Y028321
X047752Y030861
X047752Y033401
X047752Y035941
X047752Y038481
X047752Y041021
X047752Y043561
X047752Y046101
X047752Y048641
X047752Y051181
X047752Y053721
X047752Y056261
X047752Y058801
X047752Y061341
X047752Y063881
X124841Y064948
X127381Y064948
X066421Y064973
X063881Y064973
X145288Y057150
X145288Y054610
X145288Y052070
X145288Y049530
X125349Y058928
X125349Y036957
X080264Y059055
X080264Y037084
X080264Y009398
X080264Y031623
X125349Y009652
X125349Y031623
T05
X022098Y063881G85X022098Y063881
X037338Y063881G85X037338Y063881
T06
X133926Y065373
X133926Y063373
X133926Y061373
X142426Y065373
X142426Y063373
X142426Y061373
X072517Y053848
X072517Y051308
X072517Y048768
X072517Y046228
X072517Y043688
X072517Y041148
X072517Y038608
X072517Y036068
X057277Y053721
X057277Y051308
X057277Y048768
X057277Y046228
X057277Y043688
X057277Y041148
X057277Y038608
X057277Y036068
X046101Y-000254
X048641Y-000254
X051181Y-000254
X053721Y-000254
X075184Y-000254
X077724Y-000254
X080264Y-000254
X082804Y-000254
T07
X022098Y041021G85X022098Y041021
X022098Y025781G85X022098Y025781
X022098Y028321G85X022098Y028321
X022098Y030861G85X022098Y030861
X022098Y033401G85X022098Y033401
X022098Y035941G85X022098Y035941
X022098Y038481G85X022098Y038481
X022098Y043561G85X022098Y043561
X022098Y046101G85X022098Y046101
X022098Y048641G85X022098Y048641
X022098Y051181G85X022098Y051181
X022098Y053721G85X022098Y053721
X022098Y056261G85X022098Y056261
X022098Y058801G85X022098Y058801
X022098Y061341G85X022098Y061341
X022098Y015621G85X022098Y015621
X022098Y018161G85X022098Y018161
X022098Y020701G85X022098Y020701
X022098Y023241G85X022098Y023241
X037338Y041021G85X037338Y041021
X037338Y025781G85X037338Y025781
X037338Y028321G85X037338Y028321
X037338Y030861G85X037338Y030861
X037338Y033401G85X037338Y033401
X037338Y035941G85X037338Y035941
X037338Y038481G85X037338Y038481
X037338Y043561G85X037338Y043561
X037338Y046101G85X037338Y046101
X037338Y048641G85X037338Y048641
X037338Y051181G85X037338Y051181
X037338Y053721G85X037338Y053721
X037338Y056261G85X037338Y056261
X037338Y058801G85X037338Y058801
X037338Y061341G85X037338Y061341
X037338Y015621G85X037338Y015621
X037338Y018161G85X037338Y018161
X037338Y020701G85X037338Y020701
X037338Y023241G85X037338Y023241
T08
X011470Y002667
X019370Y002667
T09
X004572Y063500
X004699Y000000
X148082Y063500
X148082Y000000
M30
