G04 Layer: TopLayer*
G04 EasyEDA v6.5.28, 2023-05-24 19:42:16*
G04 Gerber Generator version 0.2*
G04 Scale: 100 percent, Rotated: No, Reflected: No *
G04 Dimensions in millimeters *
G04 leading zeros omitted , absolute positions ,4 integer and 5 decimal *
%FSLAX45Y45*%
%MOMM*%

%ADD10C,0.2540*%
%ADD11R,2.0000X1.0000*%
%ADD12C,6.0000*%
%ADD13C,1.4000*%
%ADD14C,1.7000*%
%ADD15C,1.5748*%
%ADD16R,1.5748X1.5748*%
%ADD17O,1.499997X2.4999949999999997*%
%ADD18C,1.5240*%
%ADD19R,1.5240X1.5240*%
%ADD20O,1.9999959999999999X1.5400019999999999*%
%ADD21R,1.0000X1.0000*%
%ADD22C,1.0000*%
%ADD23C,0.6096*%
%ADD24C,0.0123*%

%LPD*%
D10*
X2209800Y266697D02*
G01*
X1937004Y266697D01*
X2997200Y266697D02*
G01*
X2209800Y266697D01*
X2209800Y266697D02*
G01*
X2209800Y1562097D01*
X4864100Y-25402D02*
G01*
X4753356Y85341D01*
X3178556Y85341D01*
X2997200Y266697D01*
X5727700Y5130797D02*
G01*
X6235700Y4622797D01*
X7251700Y4622797D01*
X12534900Y3695697D02*
G01*
X12428194Y3695697D01*
X8026400Y3708397D02*
G01*
X12415494Y3708397D01*
X12428194Y3695697D01*
X7973059Y3708397D02*
G01*
X8026400Y3708397D01*
X7973059Y3708397D02*
G01*
X7919694Y3708397D01*
X14196390Y3695697D02*
G01*
X14196390Y3114875D01*
X14188490Y3106976D01*
X14196390Y3695697D02*
G01*
X14224508Y3695697D01*
X14529308Y4000497D01*
X12534900Y3695697D02*
G01*
X14196390Y3695697D01*
X8280400Y-25402D02*
G01*
X8170468Y-135333D01*
X4720031Y-135333D01*
X4610100Y-25402D01*
X13921816Y965197D02*
G01*
X14180159Y706854D01*
X14180159Y236903D01*
X14180032Y236776D01*
X12534900Y965197D02*
G01*
X13921816Y965197D01*
X13941043Y1193518D02*
G01*
X13921816Y1174290D01*
X13921816Y965197D01*
X14052067Y236776D02*
G01*
X14180032Y236776D01*
X14069009Y1193518D02*
G01*
X13941043Y1193518D01*
X14060525Y3106976D02*
G01*
X14188490Y3106976D01*
X14043609Y2150259D02*
G01*
X14171574Y2150259D01*
X14171574Y2150259D02*
G01*
X14188490Y2167176D01*
X14188490Y3106976D01*
X2209800Y1816097D02*
G01*
X1155700Y1816097D01*
X7251700Y3606797D02*
G01*
X7818094Y3606797D01*
X7919694Y3708397D01*
X5727700Y3606797D02*
G01*
X7251700Y3606797D01*
X3733800Y4610097D02*
G01*
X4775200Y4610097D01*
X12484100Y6494777D02*
G01*
X12590805Y6494777D01*
X13392607Y6337297D02*
G01*
X12721615Y6337297D01*
X12590805Y6468107D01*
X12590805Y6494777D01*
X12534900Y5892797D02*
G01*
X12428194Y5892797D01*
X5727700Y5372097D02*
G01*
X6367932Y6012329D01*
X12308662Y6012329D01*
X12428194Y5892797D01*
X13392607Y6137297D02*
G01*
X13148106Y5892797D01*
X12534900Y5892797D01*
X8026400Y5905497D02*
G01*
X8133105Y5905497D01*
X14528800Y5714997D02*
G01*
X8323605Y5714997D01*
X8133105Y5905497D01*
X3733800Y5372097D02*
G01*
X4775200Y5372097D01*
X3733800Y5118097D02*
G01*
X4775200Y5118097D01*
X5367654Y3846421D02*
G01*
X4776876Y3846421D01*
X4775200Y3848097D01*
X3733800Y3848097D02*
G01*
X4775200Y3848097D01*
X4775200Y3594097D02*
G01*
X4916093Y3734991D01*
X5917234Y3734991D01*
X3733800Y3594097D02*
G01*
X4775200Y3594097D01*
X2209800Y3594097D02*
G01*
X1155700Y3594097D01*
X7251700Y5384797D02*
G01*
X7103313Y5236410D01*
X5601766Y5236410D01*
X4848453Y4483097D01*
X3098800Y4483097D01*
X2209800Y3594097D01*
X2209800Y2578097D02*
G01*
X1155700Y2578097D01*
X2209800Y2324097D02*
G01*
X1155700Y2324097D01*
X3733800Y4864097D02*
G01*
X4775200Y4864097D01*
X14528800Y5206997D02*
G01*
X13819073Y4497270D01*
X5206187Y4497270D01*
X5065013Y4356097D01*
X4775200Y4356097D01*
X3733800Y4356097D02*
G01*
X4775200Y4356097D01*
X14060525Y3496993D02*
G01*
X13932560Y3496993D01*
X13932560Y3496993D02*
G01*
X13775664Y3340097D01*
X4775200Y3340097D01*
X3733800Y3340097D02*
G01*
X4775200Y3340097D01*
X14043609Y2540276D02*
G01*
X13915643Y2540276D01*
X13915643Y2540276D02*
G01*
X13516991Y2938929D01*
X4922367Y2938929D01*
X4775200Y3086097D01*
X3733800Y3086097D02*
G01*
X4775200Y3086097D01*
X14069009Y1583535D02*
G01*
X13941043Y1583535D01*
X13941043Y1583535D02*
G01*
X13181888Y2342690D01*
X5264607Y2342690D01*
X4775200Y2832097D01*
X3733800Y2832097D02*
G01*
X4775200Y2832097D01*
X14052067Y626793D02*
G01*
X13924102Y626793D01*
X13924102Y626793D02*
G01*
X13835735Y715159D01*
X6638137Y715159D01*
X4775200Y2578097D01*
X3733800Y2578097D02*
G01*
X4775200Y2578097D01*
X3733800Y2324097D02*
G01*
X4775200Y2324097D01*
X3733800Y2070097D02*
G01*
X4775200Y2070097D01*
X3733800Y1816097D02*
G01*
X4775200Y1816097D01*
X2209800Y6388097D02*
G01*
X1155700Y6388097D01*
X2209800Y6134097D02*
G01*
X1155700Y6134097D01*
X2209800Y5880097D02*
G01*
X1155700Y5880097D01*
X2209800Y5626097D02*
G01*
X1155700Y5626097D01*
X2209800Y5372097D02*
G01*
X1155700Y5372097D01*
X2209800Y5118097D02*
G01*
X1155700Y5118097D01*
X2209800Y4864097D02*
G01*
X1155700Y4864097D01*
X2209800Y4610097D02*
G01*
X1155700Y4610097D01*
X2209800Y4356097D02*
G01*
X1155700Y4356097D01*
X2209800Y4102097D02*
G01*
X1155700Y4102097D01*
X2209800Y3848097D02*
G01*
X1155700Y3848097D01*
X2209800Y3340097D02*
G01*
X1155700Y3340097D01*
X2209800Y3086097D02*
G01*
X1155700Y3086097D01*
X2209800Y2832097D02*
G01*
X1155700Y2832097D01*
X14529308Y4127497D02*
G01*
X14403908Y4002097D01*
X4875199Y4002097D01*
X4775200Y4102097D01*
D11*
G01*
X13092074Y626795D03*
G01*
X14052067Y626795D03*
G01*
X13092074Y236778D03*
G01*
X14052067Y236778D03*
G01*
X13108990Y1583537D03*
G01*
X14069009Y1583537D03*
G01*
X13108990Y1193520D03*
G01*
X14069009Y1193520D03*
G01*
X13083590Y2540279D03*
G01*
X14043609Y2540279D03*
G01*
X13083590Y2150262D03*
G01*
X14043609Y2150262D03*
G01*
X13100532Y3496995D03*
G01*
X14060525Y3496995D03*
G01*
X13100532Y3106978D03*
G01*
X14060525Y3106978D03*
D12*
G01*
X457200Y6350000D03*
D13*
G01*
X457200Y6579996D03*
G01*
X457200Y6120003D03*
G01*
X227203Y6350000D03*
G01*
X687196Y6350000D03*
G01*
X619912Y6512687D03*
G01*
X294512Y6187287D03*
G01*
X619912Y6187287D03*
G01*
X294512Y6512687D03*
D12*
G01*
X469900Y0D03*
D13*
G01*
X469900Y229996D03*
G01*
X469900Y-229996D03*
G01*
X239903Y0D03*
G01*
X699896Y0D03*
G01*
X632612Y162687D03*
G01*
X307212Y-162712D03*
G01*
X632612Y-162712D03*
G01*
X307212Y162687D03*
D12*
G01*
X14808200Y6350000D03*
D13*
G01*
X14808200Y6579996D03*
G01*
X14808200Y6120003D03*
G01*
X14578202Y6350000D03*
G01*
X15038197Y6350000D03*
G01*
X14970912Y6512687D03*
G01*
X14645513Y6187287D03*
G01*
X14970912Y6187287D03*
G01*
X14645513Y6512687D03*
D12*
G01*
X14808200Y0D03*
D13*
G01*
X14808200Y229996D03*
G01*
X14808200Y-229996D03*
G01*
X14578202Y0D03*
G01*
X15038197Y0D03*
G01*
X14970912Y162687D03*
G01*
X14645513Y-162712D03*
G01*
X14970912Y-162712D03*
G01*
X14645513Y162687D03*
D14*
G01*
X1147038Y266700D03*
G01*
X1937004Y266700D03*
D15*
G01*
X1155700Y1562100D03*
G01*
X1155700Y1816100D03*
G01*
X1155700Y2070100D03*
G01*
X1155700Y2324100D03*
G01*
X1155700Y2578100D03*
G01*
X1155700Y2832100D03*
G01*
X1155700Y3086100D03*
G01*
X1155700Y3340100D03*
G01*
X1155700Y3594100D03*
G01*
X1155700Y3848100D03*
G01*
X1155700Y4102100D03*
G01*
X1155700Y4356100D03*
G01*
X1155700Y4610100D03*
G01*
X1155700Y4864100D03*
G01*
X1155700Y5118100D03*
G01*
X1155700Y5372100D03*
G01*
X1155700Y5626100D03*
G01*
X1155700Y5880100D03*
G01*
X1155700Y6134100D03*
D16*
G01*
X1155700Y6388100D03*
D15*
G01*
X4775200Y1562100D03*
G01*
X4775200Y1816100D03*
G01*
X4775200Y2070100D03*
G01*
X4775200Y2324100D03*
G01*
X4775200Y2578100D03*
G01*
X4775200Y2832100D03*
G01*
X4775200Y3086100D03*
G01*
X4775200Y3340100D03*
G01*
X4775200Y3594100D03*
G01*
X4775200Y3848100D03*
G01*
X4775200Y4102100D03*
G01*
X4775200Y4356100D03*
G01*
X4775200Y4610100D03*
G01*
X4775200Y4864100D03*
G01*
X4775200Y5118100D03*
G01*
X4775200Y5372100D03*
G01*
X4775200Y5626100D03*
G01*
X4775200Y5880100D03*
G01*
X4775200Y6134100D03*
D16*
G01*
X4775200Y6388100D03*
G01*
X12484100Y6494779D03*
D15*
G01*
X12738100Y6494779D03*
D16*
G01*
X6642100Y6497320D03*
D15*
G01*
X6388100Y6497320D03*
D16*
G01*
X14528800Y5715000D03*
D15*
G01*
X14528800Y5461000D03*
G01*
X14528800Y5207000D03*
G01*
X14528800Y4953000D03*
D16*
G01*
X12534900Y5892800D03*
G01*
X12534900Y3695700D03*
G01*
X8026400Y5905500D03*
G01*
X8026400Y3708400D03*
G01*
X8026400Y939800D03*
G01*
X8026400Y3162300D03*
G01*
X12534900Y965200D03*
G01*
X12534900Y3162300D03*
D17*
G01*
X3251200Y266700D03*
G01*
X2997200Y266700D03*
D18*
G01*
X13392607Y6537299D03*
G01*
X13392607Y6337300D03*
G01*
X13392607Y6137300D03*
G01*
X14242592Y6537274D03*
G01*
X14242592Y6337274D03*
G01*
X14242592Y6137275D03*
G01*
X2209800Y4102100D03*
G01*
X2209800Y2578100D03*
G01*
X2209800Y2832100D03*
G01*
X2209800Y3086100D03*
G01*
X2209800Y3340100D03*
G01*
X2209800Y3594100D03*
G01*
X2209800Y3848100D03*
G01*
X2209800Y4356100D03*
G01*
X2209800Y4610100D03*
G01*
X2209800Y4864100D03*
G01*
X2209800Y5118100D03*
G01*
X2209800Y5372100D03*
G01*
X2209800Y5626100D03*
G01*
X2209800Y5880100D03*
G01*
X2209800Y6134100D03*
D19*
G01*
X2209800Y6388100D03*
D18*
G01*
X2209800Y1562100D03*
G01*
X2209800Y1816100D03*
G01*
X2209800Y2070100D03*
G01*
X2209800Y2324100D03*
G01*
X3733800Y4102100D03*
G01*
X3733800Y2578100D03*
G01*
X3733800Y2832100D03*
G01*
X3733800Y3086100D03*
G01*
X3733800Y3340100D03*
G01*
X3733800Y3594100D03*
G01*
X3733800Y3848100D03*
G01*
X3733800Y4356100D03*
G01*
X3733800Y4610100D03*
G01*
X3733800Y4864100D03*
G01*
X3733800Y5118100D03*
G01*
X3733800Y5372100D03*
G01*
X3733800Y5626100D03*
G01*
X3733800Y5880100D03*
G01*
X3733800Y6134100D03*
G01*
X3733800Y6388100D03*
G01*
X3733800Y1562100D03*
G01*
X3733800Y1816100D03*
G01*
X3733800Y2070100D03*
G01*
X3733800Y2324100D03*
D20*
G01*
X7251700Y5384800D03*
G01*
X7251700Y5130800D03*
G01*
X7251700Y4876800D03*
G01*
X7251700Y4622800D03*
G01*
X7251700Y4368800D03*
G01*
X7251700Y4114800D03*
G01*
X7251700Y3860800D03*
G01*
X7251700Y3606800D03*
G01*
X5727700Y5372100D03*
G01*
X5727700Y5130800D03*
G01*
X5727700Y4876800D03*
G01*
X5727700Y4622800D03*
G01*
X5727700Y4368800D03*
G01*
X5727700Y4114800D03*
G01*
X5727700Y3860800D03*
G01*
X5727700Y3606800D03*
D18*
G01*
X4610100Y-25400D03*
G01*
X4864100Y-25400D03*
G01*
X5118100Y-25400D03*
G01*
X5372100Y-25400D03*
G01*
X7518400Y-25400D03*
G01*
X7772400Y-25400D03*
G01*
X8026400Y-25400D03*
G01*
X8280400Y-25400D03*
D21*
G01*
X14529308Y4254500D03*
D22*
G01*
X14529308Y4127500D03*
G01*
X14529308Y4000500D03*
D23*
G01*
X5367654Y3846423D03*
G01*
X5917234Y3734993D03*
M02*
