G04 Layer: BottomLayer*
G04 EasyEDA v6.5.28, 2023-05-24 19:42:16*
G04 Gerber Generator version 0.2*
G04 Scale: 100 percent, Rotated: No, Reflected: No *
G04 Dimensions in millimeters *
G04 leading zeros omitted , absolute positions ,4 integer and 5 decimal *
%FSLAX45Y45*%
%MOMM*%

%ADD10C,0.2540*%
%ADD11C,6.0000*%
%ADD12C,1.4000*%
%ADD13C,1.7000*%
%ADD14C,1.5748*%
%ADD15R,1.5748X1.5748*%
%ADD16O,1.499997X2.4999949999999997*%
%ADD17C,1.5240*%
%ADD18R,1.5240X1.5240*%
%ADD19O,1.9999959999999999X1.5400019999999999*%
%ADD20R,1.0000X1.0000*%
%ADD21C,1.0000*%
%ADD22C,0.6096*%
%ADD23C,0.0180*%

%LPD*%
D10*
X5727700Y5130797D02*
G01*
X5359400Y5499097D01*
X4699025Y5499097D01*
X3937025Y4737097D01*
X3701846Y4737097D01*
X2355367Y3390618D01*
X2355367Y3083024D01*
X2231440Y2959097D01*
X2168448Y2959097D01*
X1987854Y2778503D01*
X1987854Y1784042D01*
X2209800Y1562097D01*
X8026400Y3162297D02*
G01*
X8026400Y3269002D01*
X7251700Y4622797D02*
G01*
X7907604Y3966893D01*
X7907604Y3387798D01*
X8026400Y3269002D01*
X12534900Y965197D02*
G01*
X12534900Y1071902D01*
X12534900Y3696637D02*
G01*
X12428067Y3589804D01*
X12428067Y1178735D01*
X12534900Y1071902D01*
X12534900Y3749062D02*
G01*
X12534900Y3802402D01*
X12534900Y3695697D02*
G01*
X12534900Y3696637D01*
X12534900Y3749062D02*
G01*
X12534900Y3696637D01*
X2209800Y1816097D02*
G01*
X3124200Y901697D01*
X3124200Y196771D01*
X3346373Y-25402D01*
X4610100Y-25402D01*
X12738100Y6494777D02*
G01*
X12416205Y6172883D01*
X12416205Y3921097D01*
X12534900Y3802402D01*
X8026400Y3708397D02*
G01*
X8026400Y3601692D01*
X8026400Y939797D02*
G01*
X8026400Y1046502D01*
X8026400Y1046502D02*
G01*
X8133232Y1153335D01*
X8133232Y3494859D01*
X8026400Y3601692D01*
X8026400Y886457D02*
G01*
X8026400Y939797D01*
X8026400Y886457D02*
G01*
X8026400Y833092D01*
X5727700Y4876797D02*
G01*
X5597397Y4746495D01*
X5597397Y3737099D01*
X5727700Y3606797D01*
X8280400Y-25402D02*
G01*
X8280400Y579092D01*
X8026400Y833092D01*
X14529308Y4000497D02*
G01*
X14639290Y4110479D01*
X14639290Y5350507D01*
X14528800Y5460997D01*
X3251200Y266697D02*
G01*
X3251200Y924405D01*
X2232507Y1943097D01*
X2174443Y1943097D01*
X2035175Y2082365D01*
X2035175Y2567607D01*
X2172665Y2705097D01*
X2243378Y2705097D01*
X3584092Y4045811D01*
X3584092Y4460389D01*
X3733800Y4610097D01*
X12534900Y5892797D02*
G01*
X12534900Y5786092D01*
X12534900Y3162297D02*
G01*
X12534900Y3269002D01*
X12534900Y3269002D02*
G01*
X12641732Y3375835D01*
X12641732Y5679259D01*
X12534900Y5786092D01*
X8026400Y5905497D02*
G01*
X8026400Y5798792D01*
X8026400Y5798792D02*
G01*
X8391143Y5434048D01*
X8391143Y-64874D01*
X8318500Y-137518D01*
X7630515Y-137518D01*
X7518400Y-25402D01*
X14528800Y5714997D02*
G01*
X14528800Y5608292D01*
X14529308Y4254497D02*
G01*
X14451355Y4254497D01*
X14451355Y4254497D02*
G01*
X14418411Y4287441D01*
X14418411Y5524573D01*
X14502129Y5608292D01*
X14528800Y5608292D01*
X7772400Y-25402D02*
G01*
X4995290Y2751706D01*
X4995290Y4541339D01*
X4799533Y4737097D01*
X4735195Y4737097D01*
X4666640Y4805652D01*
X4666640Y5263537D01*
X4775200Y5372097D01*
X8026400Y-25402D02*
G01*
X5087670Y2913326D01*
X5087670Y4805626D01*
X4775200Y5118097D01*
X7251700Y4876797D02*
G01*
X5876036Y3501133D01*
X5644337Y3501133D01*
X5367654Y3777815D01*
X5367654Y3846421D01*
X7251700Y5130797D02*
G01*
X7251700Y5069456D01*
X5917234Y3734991D01*
X5118100Y-25402D02*
G01*
X3812235Y1280462D01*
X3150971Y1280462D01*
X2240432Y2191001D01*
X2191004Y2191001D01*
X2092807Y2289197D01*
X2092807Y2461105D01*
X2209800Y2578097D01*
X5372100Y-25402D02*
G01*
X3891127Y1455569D01*
X3078327Y1455569D01*
X2209800Y2324097D01*
X3733800Y4864097D02*
G01*
X2314575Y3444872D01*
X2314575Y3288840D01*
X2238832Y3213097D01*
X2179269Y3213097D01*
X1823923Y2857751D01*
X1823923Y943582D01*
X1147038Y266697D01*
X5727700Y4368797D02*
G01*
X6388100Y5029197D01*
X6388100Y6497317D01*
X6642100Y6497317D02*
G01*
X6535394Y6497317D01*
X5727700Y4622797D02*
G01*
X6230797Y5125895D01*
X6230797Y6496911D01*
X6346850Y6612963D01*
X6446418Y6612963D01*
X6535394Y6523987D01*
X6535394Y6497317D01*
X3733800Y4102097D02*
G01*
X4775200Y4102097D01*
D11*
G01*
X457200Y6350000D03*
D12*
G01*
X457200Y6579996D03*
G01*
X457200Y6120003D03*
G01*
X227203Y6350000D03*
G01*
X687196Y6350000D03*
G01*
X619912Y6512687D03*
G01*
X294512Y6187287D03*
G01*
X619912Y6187287D03*
G01*
X294512Y6512687D03*
D11*
G01*
X469900Y0D03*
D12*
G01*
X469900Y229996D03*
G01*
X469900Y-229996D03*
G01*
X239903Y0D03*
G01*
X699896Y0D03*
G01*
X632612Y162687D03*
G01*
X307212Y-162712D03*
G01*
X632612Y-162712D03*
G01*
X307212Y162687D03*
D11*
G01*
X14808200Y6350000D03*
D12*
G01*
X14808200Y6579996D03*
G01*
X14808200Y6120003D03*
G01*
X14578202Y6350000D03*
G01*
X15038197Y6350000D03*
G01*
X14970912Y6512687D03*
G01*
X14645513Y6187287D03*
G01*
X14970912Y6187287D03*
G01*
X14645513Y6512687D03*
D11*
G01*
X14808200Y0D03*
D12*
G01*
X14808200Y229996D03*
G01*
X14808200Y-229996D03*
G01*
X14578202Y0D03*
G01*
X15038197Y0D03*
G01*
X14970912Y162687D03*
G01*
X14645513Y-162712D03*
G01*
X14970912Y-162712D03*
G01*
X14645513Y162687D03*
D13*
G01*
X1147038Y266700D03*
G01*
X1937004Y266700D03*
D14*
G01*
X1155700Y1562100D03*
G01*
X1155700Y1816100D03*
G01*
X1155700Y2070100D03*
G01*
X1155700Y2324100D03*
G01*
X1155700Y2578100D03*
G01*
X1155700Y2832100D03*
G01*
X1155700Y3086100D03*
G01*
X1155700Y3340100D03*
G01*
X1155700Y3594100D03*
G01*
X1155700Y3848100D03*
G01*
X1155700Y4102100D03*
G01*
X1155700Y4356100D03*
G01*
X1155700Y4610100D03*
G01*
X1155700Y4864100D03*
G01*
X1155700Y5118100D03*
G01*
X1155700Y5372100D03*
G01*
X1155700Y5626100D03*
G01*
X1155700Y5880100D03*
G01*
X1155700Y6134100D03*
D15*
G01*
X1155700Y6388100D03*
D14*
G01*
X4775200Y1562100D03*
G01*
X4775200Y1816100D03*
G01*
X4775200Y2070100D03*
G01*
X4775200Y2324100D03*
G01*
X4775200Y2578100D03*
G01*
X4775200Y2832100D03*
G01*
X4775200Y3086100D03*
G01*
X4775200Y3340100D03*
G01*
X4775200Y3594100D03*
G01*
X4775200Y3848100D03*
G01*
X4775200Y4102100D03*
G01*
X4775200Y4356100D03*
G01*
X4775200Y4610100D03*
G01*
X4775200Y4864100D03*
G01*
X4775200Y5118100D03*
G01*
X4775200Y5372100D03*
G01*
X4775200Y5626100D03*
G01*
X4775200Y5880100D03*
G01*
X4775200Y6134100D03*
D15*
G01*
X4775200Y6388100D03*
G01*
X12484100Y6494779D03*
D14*
G01*
X12738100Y6494779D03*
D15*
G01*
X6642100Y6497320D03*
D14*
G01*
X6388100Y6497320D03*
D15*
G01*
X14528800Y5715000D03*
D14*
G01*
X14528800Y5461000D03*
G01*
X14528800Y5207000D03*
G01*
X14528800Y4953000D03*
D15*
G01*
X12534900Y5892800D03*
G01*
X12534900Y3695700D03*
G01*
X8026400Y5905500D03*
G01*
X8026400Y3708400D03*
G01*
X8026400Y939800D03*
G01*
X8026400Y3162300D03*
G01*
X12534900Y965200D03*
G01*
X12534900Y3162300D03*
D16*
G01*
X3251200Y266700D03*
G01*
X2997200Y266700D03*
D17*
G01*
X13392607Y6537299D03*
G01*
X13392607Y6337300D03*
G01*
X13392607Y6137300D03*
G01*
X14242592Y6537274D03*
G01*
X14242592Y6337274D03*
G01*
X14242592Y6137275D03*
G01*
X2209800Y4102100D03*
G01*
X2209800Y2578100D03*
G01*
X2209800Y2832100D03*
G01*
X2209800Y3086100D03*
G01*
X2209800Y3340100D03*
G01*
X2209800Y3594100D03*
G01*
X2209800Y3848100D03*
G01*
X2209800Y4356100D03*
G01*
X2209800Y4610100D03*
G01*
X2209800Y4864100D03*
G01*
X2209800Y5118100D03*
G01*
X2209800Y5372100D03*
G01*
X2209800Y5626100D03*
G01*
X2209800Y5880100D03*
G01*
X2209800Y6134100D03*
D18*
G01*
X2209800Y6388100D03*
D17*
G01*
X2209800Y1562100D03*
G01*
X2209800Y1816100D03*
G01*
X2209800Y2070100D03*
G01*
X2209800Y2324100D03*
G01*
X3733800Y4102100D03*
G01*
X3733800Y2578100D03*
G01*
X3733800Y2832100D03*
G01*
X3733800Y3086100D03*
G01*
X3733800Y3340100D03*
G01*
X3733800Y3594100D03*
G01*
X3733800Y3848100D03*
G01*
X3733800Y4356100D03*
G01*
X3733800Y4610100D03*
G01*
X3733800Y4864100D03*
G01*
X3733800Y5118100D03*
G01*
X3733800Y5372100D03*
G01*
X3733800Y5626100D03*
G01*
X3733800Y5880100D03*
G01*
X3733800Y6134100D03*
G01*
X3733800Y6388100D03*
G01*
X3733800Y1562100D03*
G01*
X3733800Y1816100D03*
G01*
X3733800Y2070100D03*
G01*
X3733800Y2324100D03*
D19*
G01*
X7251700Y5384800D03*
G01*
X7251700Y5130800D03*
G01*
X7251700Y4876800D03*
G01*
X7251700Y4622800D03*
G01*
X7251700Y4368800D03*
G01*
X7251700Y4114800D03*
G01*
X7251700Y3860800D03*
G01*
X7251700Y3606800D03*
G01*
X5727700Y5372100D03*
G01*
X5727700Y5130800D03*
G01*
X5727700Y4876800D03*
G01*
X5727700Y4622800D03*
G01*
X5727700Y4368800D03*
G01*
X5727700Y4114800D03*
G01*
X5727700Y3860800D03*
G01*
X5727700Y3606800D03*
D17*
G01*
X4610100Y-25400D03*
G01*
X4864100Y-25400D03*
G01*
X5118100Y-25400D03*
G01*
X5372100Y-25400D03*
G01*
X7518400Y-25400D03*
G01*
X7772400Y-25400D03*
G01*
X8026400Y-25400D03*
G01*
X8280400Y-25400D03*
D20*
G01*
X14529308Y4254500D03*
D21*
G01*
X14529308Y4127500D03*
G01*
X14529308Y4000500D03*
D22*
G01*
X5367654Y3846423D03*
G01*
X5917234Y3734993D03*
M02*
