G04 Layer: TopSilkscreenLayer*
G04 EasyEDA v6.5.28, 2023-05-24 19:42:16*
G04 Gerber Generator version 0.2*
G04 Scale: 100 percent, Rotated: No, Reflected: No *
G04 Dimensions in millimeters *
G04 leading zeros omitted , absolute positions ,4 integer and 5 decimal *
%FSLAX45Y45*%
%MOMM*%

%ADD10C,0.1524*%
%ADD11C,0.2032*%
%ADD12C,0.2540*%
%ADD13C,0.2030*%

%LPD*%
D10*
X433600Y6795515D02*
G01*
X433600Y6686550D01*
X433600Y6795515D02*
G01*
X501164Y6795515D01*
X433600Y6743700D02*
G01*
X475256Y6743700D01*
X433600Y6686550D02*
G01*
X501164Y6686550D01*
X535454Y6774687D02*
G01*
X545868Y6780021D01*
X561362Y6795515D01*
X561362Y6686550D01*
X446300Y445515D02*
G01*
X446300Y336550D01*
X446300Y445515D02*
G01*
X513864Y445515D01*
X446300Y393700D02*
G01*
X487956Y393700D01*
X446300Y336550D02*
G01*
X513864Y336550D01*
X553234Y419607D02*
G01*
X553234Y424687D01*
X558568Y435102D01*
X563648Y440436D01*
X574062Y445515D01*
X594890Y445515D01*
X605304Y440436D01*
X610384Y435102D01*
X615718Y424687D01*
X615718Y414273D01*
X610384Y403860D01*
X599970Y388365D01*
X548154Y336550D01*
X620798Y336550D01*
X14784600Y6795515D02*
G01*
X14784600Y6686550D01*
X14784600Y6795515D02*
G01*
X14852164Y6795515D01*
X14784600Y6743700D02*
G01*
X14826256Y6743700D01*
X14784600Y6686550D02*
G01*
X14852164Y6686550D01*
X14896868Y6795515D02*
G01*
X14954018Y6795515D01*
X14922776Y6753860D01*
X14938270Y6753860D01*
X14948684Y6748779D01*
X14954018Y6743700D01*
X14959098Y6727952D01*
X14959098Y6717537D01*
X14954018Y6702044D01*
X14943604Y6691629D01*
X14928110Y6686550D01*
X14912362Y6686550D01*
X14896868Y6691629D01*
X14891534Y6696710D01*
X14886454Y6707123D01*
X14784600Y445515D02*
G01*
X14784600Y336550D01*
X14784600Y445515D02*
G01*
X14852164Y445515D01*
X14784600Y393700D02*
G01*
X14826256Y393700D01*
X14784600Y336550D02*
G01*
X14852164Y336550D01*
X14938270Y445515D02*
G01*
X14886454Y372871D01*
X14964432Y372871D01*
X14938270Y445515D02*
G01*
X14938270Y336550D01*
X1536700Y1004315D02*
G01*
X1536700Y895350D01*
X1536700Y1004315D02*
G01*
X1583436Y1004315D01*
X1598929Y999236D01*
X1604263Y993902D01*
X1609344Y983487D01*
X1609344Y973073D01*
X1604263Y962660D01*
X1598929Y957579D01*
X1583436Y952500D01*
X1536700Y952500D02*
G01*
X1583436Y952500D01*
X1598929Y947165D01*
X1604263Y942086D01*
X1609344Y931671D01*
X1609344Y915923D01*
X1604263Y905510D01*
X1598929Y900429D01*
X1583436Y895350D01*
X1536700Y895350D01*
X1716531Y1004315D02*
G01*
X1643634Y895350D01*
X1643634Y1004315D02*
G01*
X1716531Y1004315D01*
X1643634Y895350D02*
G01*
X1716531Y895350D01*
X1750821Y983487D02*
G01*
X1761236Y988821D01*
X1776729Y1004315D01*
X1776729Y895350D01*
X1423415Y4000500D02*
G01*
X1314450Y4000500D01*
X1423415Y3927855D02*
G01*
X1314450Y3927855D01*
X1371600Y4000500D02*
G01*
X1371600Y3927855D01*
X1402587Y3893565D02*
G01*
X1407921Y3883152D01*
X1423415Y3867404D01*
X1314450Y3867404D01*
X5042915Y4000500D02*
G01*
X4933950Y4000500D01*
X5042915Y3927855D02*
G01*
X4933950Y3927855D01*
X4991100Y4000500D02*
G01*
X4991100Y3927855D01*
X5017008Y3888231D02*
G01*
X5022088Y3888231D01*
X5032502Y3883152D01*
X5037836Y3877818D01*
X5042915Y3867404D01*
X5042915Y3846829D01*
X5037836Y3836415D01*
X5032502Y3831081D01*
X5022088Y3826002D01*
X5011674Y3826002D01*
X5001259Y3831081D01*
X4985765Y3841495D01*
X4933950Y3893565D01*
X4933950Y3820668D01*
X12585700Y6762495D02*
G01*
X12585700Y6653529D01*
X12658343Y6762495D02*
G01*
X12658343Y6653529D01*
X12585700Y6710679D02*
G01*
X12658343Y6710679D01*
X12703047Y6762495D02*
G01*
X12760197Y6762495D01*
X12729209Y6720839D01*
X12744704Y6720839D01*
X12755118Y6715760D01*
X12760197Y6710679D01*
X12765531Y6694931D01*
X12765531Y6684518D01*
X12760197Y6669023D01*
X12749784Y6658610D01*
X12734290Y6653529D01*
X12718795Y6653529D01*
X12703047Y6658610D01*
X12697968Y6663689D01*
X12692634Y6674104D01*
X6540500Y6229604D02*
G01*
X6540500Y6338570D01*
X6467856Y6229604D02*
G01*
X6467856Y6338570D01*
X6540500Y6281420D02*
G01*
X6467856Y6281420D01*
X6407404Y6229604D02*
G01*
X6423152Y6234684D01*
X6428231Y6245097D01*
X6428231Y6255512D01*
X6423152Y6265926D01*
X6412738Y6271260D01*
X6391909Y6276339D01*
X6376415Y6281420D01*
X6366002Y6291834D01*
X6360668Y6302247D01*
X6360668Y6317995D01*
X6366002Y6328410D01*
X6371081Y6333489D01*
X6386829Y6338570D01*
X6407404Y6338570D01*
X6423152Y6333489D01*
X6428231Y6328410D01*
X6433565Y6317995D01*
X6433565Y6302247D01*
X6428231Y6291834D01*
X6417818Y6281420D01*
X6402324Y6276339D01*
X6381495Y6271260D01*
X6371081Y6265926D01*
X6366002Y6255512D01*
X6366002Y6245097D01*
X6371081Y6234684D01*
X6386829Y6229604D01*
X6407404Y6229604D01*
X14796516Y5359400D02*
G01*
X14687550Y5359400D01*
X14796516Y5286755D02*
G01*
X14687550Y5286755D01*
X14744700Y5359400D02*
G01*
X14744700Y5286755D01*
X14760193Y5184902D02*
G01*
X14744700Y5189981D01*
X14734286Y5200395D01*
X14728952Y5215889D01*
X14728952Y5221223D01*
X14734286Y5236718D01*
X14744700Y5247131D01*
X14760193Y5252465D01*
X14765274Y5252465D01*
X14781022Y5247131D01*
X14791436Y5236718D01*
X14796516Y5221223D01*
X14796516Y5215889D01*
X14791436Y5200395D01*
X14781022Y5189981D01*
X14760193Y5184902D01*
X14734286Y5184902D01*
X14708124Y5189981D01*
X14692629Y5200395D01*
X14687550Y5215889D01*
X14687550Y5226304D01*
X14692629Y5242052D01*
X14703043Y5247131D01*
X12586970Y6150355D02*
G01*
X12586970Y6067297D01*
X12581636Y6051550D01*
X12576556Y6046470D01*
X12566141Y6041389D01*
X12555727Y6041389D01*
X12545313Y6046470D01*
X12539979Y6051550D01*
X12534900Y6067297D01*
X12534900Y6077712D01*
X12621259Y6129528D02*
G01*
X12631420Y6134862D01*
X12647168Y6150355D01*
X12647168Y6041389D01*
X12586970Y3953255D02*
G01*
X12586970Y3870197D01*
X12581636Y3854450D01*
X12576556Y3849370D01*
X12566141Y3844289D01*
X12555727Y3844289D01*
X12545313Y3849370D01*
X12539979Y3854450D01*
X12534900Y3870197D01*
X12534900Y3880612D01*
X12626340Y3927347D02*
G01*
X12626340Y3932428D01*
X12631420Y3942842D01*
X12636754Y3948176D01*
X12647168Y3953255D01*
X12667995Y3953255D01*
X12678409Y3948176D01*
X12683490Y3942842D01*
X12688570Y3932428D01*
X12688570Y3922013D01*
X12683490Y3911600D01*
X12673075Y3896105D01*
X12621259Y3844289D01*
X12693904Y3844289D01*
X8078470Y6163055D02*
G01*
X8078470Y6079997D01*
X8073136Y6064250D01*
X8068056Y6059170D01*
X8057641Y6054089D01*
X8047227Y6054089D01*
X8036813Y6059170D01*
X8031479Y6064250D01*
X8026400Y6079997D01*
X8026400Y6090412D01*
X8122920Y6163055D02*
G01*
X8180070Y6163055D01*
X8149081Y6121400D01*
X8164575Y6121400D01*
X8174990Y6116320D01*
X8180070Y6111239D01*
X8185404Y6095492D01*
X8185404Y6085078D01*
X8180070Y6069584D01*
X8169909Y6059170D01*
X8154161Y6054089D01*
X8138668Y6054089D01*
X8122920Y6059170D01*
X8117840Y6064250D01*
X8112759Y6074663D01*
X8078470Y3965955D02*
G01*
X8078470Y3882897D01*
X8073136Y3867150D01*
X8068056Y3862070D01*
X8057641Y3856989D01*
X8047227Y3856989D01*
X8036813Y3862070D01*
X8031479Y3867150D01*
X8026400Y3882897D01*
X8026400Y3893312D01*
X8164575Y3965955D02*
G01*
X8112759Y3893312D01*
X8190484Y3893312D01*
X8164575Y3965955D02*
G01*
X8164575Y3856989D01*
X8078470Y1197355D02*
G01*
X8078470Y1114297D01*
X8073136Y1098550D01*
X8068056Y1093470D01*
X8057641Y1088389D01*
X8047227Y1088389D01*
X8036813Y1093470D01*
X8031479Y1098550D01*
X8026400Y1114297D01*
X8026400Y1124712D01*
X8174990Y1197355D02*
G01*
X8122920Y1197355D01*
X8117840Y1150620D01*
X8122920Y1155700D01*
X8138668Y1161034D01*
X8154161Y1161034D01*
X8169909Y1155700D01*
X8180070Y1145539D01*
X8185404Y1129792D01*
X8185404Y1119378D01*
X8180070Y1103884D01*
X8169909Y1093470D01*
X8154161Y1088389D01*
X8138668Y1088389D01*
X8122920Y1093470D01*
X8117840Y1098550D01*
X8112759Y1108963D01*
X8078470Y3419855D02*
G01*
X8078470Y3336797D01*
X8073136Y3321050D01*
X8068056Y3315970D01*
X8057641Y3310889D01*
X8047227Y3310889D01*
X8036813Y3315970D01*
X8031479Y3321050D01*
X8026400Y3336797D01*
X8026400Y3347212D01*
X8174990Y3404362D02*
G01*
X8169909Y3414776D01*
X8154161Y3419855D01*
X8143747Y3419855D01*
X8128254Y3414776D01*
X8117840Y3399028D01*
X8112759Y3373120D01*
X8112759Y3347212D01*
X8117840Y3326384D01*
X8128254Y3315970D01*
X8143747Y3310889D01*
X8149081Y3310889D01*
X8164575Y3315970D01*
X8174990Y3326384D01*
X8180070Y3341878D01*
X8180070Y3347212D01*
X8174990Y3362705D01*
X8164575Y3373120D01*
X8149081Y3378200D01*
X8143747Y3378200D01*
X8128254Y3373120D01*
X8117840Y3362705D01*
X8112759Y3347212D01*
X12586970Y1222755D02*
G01*
X12586970Y1139697D01*
X12581636Y1123950D01*
X12576556Y1118870D01*
X12566141Y1113789D01*
X12555727Y1113789D01*
X12545313Y1118870D01*
X12539979Y1123950D01*
X12534900Y1139697D01*
X12534900Y1150112D01*
X12693904Y1222755D02*
G01*
X12641834Y1113789D01*
X12621259Y1222755D02*
G01*
X12693904Y1222755D01*
X12586970Y3419855D02*
G01*
X12586970Y3336797D01*
X12581636Y3321050D01*
X12576556Y3315970D01*
X12566141Y3310889D01*
X12555727Y3310889D01*
X12545313Y3315970D01*
X12539979Y3321050D01*
X12534900Y3336797D01*
X12534900Y3347212D01*
X12647168Y3419855D02*
G01*
X12631420Y3414776D01*
X12626340Y3404362D01*
X12626340Y3393947D01*
X12631420Y3383534D01*
X12641834Y3378200D01*
X12662661Y3373120D01*
X12678409Y3368039D01*
X12688570Y3357626D01*
X12693904Y3347212D01*
X12693904Y3331463D01*
X12688570Y3321050D01*
X12683490Y3315970D01*
X12667995Y3310889D01*
X12647168Y3310889D01*
X12631420Y3315970D01*
X12626340Y3321050D01*
X12621259Y3331463D01*
X12621259Y3347212D01*
X12626340Y3357626D01*
X12636754Y3368039D01*
X12652247Y3373120D01*
X12673075Y3378200D01*
X12683490Y3383534D01*
X12688570Y3393947D01*
X12688570Y3404362D01*
X12683490Y3414776D01*
X12667995Y3419855D01*
X12647168Y3419855D01*
X13572053Y877328D02*
G01*
X13572053Y768362D01*
X13644697Y877328D02*
G01*
X13572053Y804684D01*
X13597961Y830592D02*
G01*
X13644697Y768362D01*
X13678987Y877328D02*
G01*
X13678987Y768362D01*
X13678987Y877328D02*
G01*
X13746551Y877328D01*
X13678987Y825512D02*
G01*
X13720643Y825512D01*
X13678987Y768362D02*
G01*
X13746551Y768362D01*
X13780841Y877328D02*
G01*
X13822497Y825512D01*
X13822497Y768362D01*
X13864153Y877328D02*
G01*
X13822497Y825512D01*
X13929431Y877328D02*
G01*
X13913937Y872248D01*
X13903523Y856500D01*
X13898443Y830592D01*
X13898443Y815098D01*
X13903523Y788936D01*
X13913937Y773442D01*
X13929431Y768362D01*
X13939845Y768362D01*
X13955593Y773442D01*
X13965753Y788936D01*
X13971087Y815098D01*
X13971087Y830592D01*
X13965753Y856500D01*
X13955593Y872248D01*
X13939845Y877328D01*
X13929431Y877328D01*
X13589000Y1910250D02*
G01*
X13589000Y1801284D01*
X13661643Y1910250D02*
G01*
X13589000Y1837606D01*
X13614908Y1863514D02*
G01*
X13661643Y1801284D01*
X13695934Y1910250D02*
G01*
X13695934Y1801284D01*
X13695934Y1910250D02*
G01*
X13763497Y1910250D01*
X13695934Y1858434D02*
G01*
X13737590Y1858434D01*
X13695934Y1801284D02*
G01*
X13763497Y1801284D01*
X13797788Y1910250D02*
G01*
X13839443Y1858434D01*
X13839443Y1801284D01*
X13881100Y1910250D02*
G01*
X13839443Y1858434D01*
X13915390Y1889422D02*
G01*
X13925550Y1894756D01*
X13941297Y1910250D01*
X13941297Y1801284D01*
X13563587Y2790794D02*
G01*
X13563587Y2681828D01*
X13636231Y2790794D02*
G01*
X13563587Y2718150D01*
X13589495Y2744058D02*
G01*
X13636231Y2681828D01*
X13670521Y2790794D02*
G01*
X13670521Y2681828D01*
X13670521Y2790794D02*
G01*
X13738085Y2790794D01*
X13670521Y2738978D02*
G01*
X13712177Y2738978D01*
X13670521Y2681828D02*
G01*
X13738085Y2681828D01*
X13772375Y2790794D02*
G01*
X13814031Y2738978D01*
X13814031Y2681828D01*
X13855687Y2790794D02*
G01*
X13814031Y2738978D01*
X13895057Y2764886D02*
G01*
X13895057Y2769966D01*
X13900137Y2780380D01*
X13905471Y2785714D01*
X13915885Y2790794D01*
X13936713Y2790794D01*
X13947127Y2785714D01*
X13952207Y2780380D01*
X13957287Y2769966D01*
X13957287Y2759552D01*
X13952207Y2749138D01*
X13941793Y2733644D01*
X13889977Y2681828D01*
X13962621Y2681828D01*
X13580521Y3747528D02*
G01*
X13580521Y3638562D01*
X13653165Y3747528D02*
G01*
X13580521Y3674884D01*
X13606429Y3700792D02*
G01*
X13653165Y3638562D01*
X13687455Y3747528D02*
G01*
X13687455Y3638562D01*
X13687455Y3747528D02*
G01*
X13755019Y3747528D01*
X13687455Y3695712D02*
G01*
X13729111Y3695712D01*
X13687455Y3638562D02*
G01*
X13755019Y3638562D01*
X13789309Y3747528D02*
G01*
X13830965Y3695712D01*
X13830965Y3638562D01*
X13872621Y3747528D02*
G01*
X13830965Y3695712D01*
X13917071Y3747528D02*
G01*
X13974221Y3747528D01*
X13943233Y3705872D01*
X13958727Y3705872D01*
X13969141Y3700792D01*
X13974221Y3695712D01*
X13979555Y3679964D01*
X13979555Y3669550D01*
X13974221Y3654056D01*
X13964061Y3643642D01*
X13948313Y3638562D01*
X13932819Y3638562D01*
X13917071Y3643642D01*
X13911991Y3648722D01*
X13906911Y3659136D01*
X3124200Y788410D02*
G01*
X3124200Y679444D01*
X3124200Y679444D02*
G01*
X3186429Y679444D01*
X3220720Y788410D02*
G01*
X3220720Y679444D01*
X3220720Y788410D02*
G01*
X3288284Y788410D01*
X3220720Y736594D02*
G01*
X3262375Y736594D01*
X3220720Y679444D02*
G01*
X3288284Y679444D01*
X3322574Y788410D02*
G01*
X3322574Y679444D01*
X3322574Y788410D02*
G01*
X3359150Y788410D01*
X3374643Y783330D01*
X3385058Y772916D01*
X3390138Y762502D01*
X3395472Y746754D01*
X3395472Y720846D01*
X3390138Y705352D01*
X3385058Y694938D01*
X3374643Y684524D01*
X3359150Y679444D01*
X3322574Y679444D01*
X3429761Y767582D02*
G01*
X3440175Y772916D01*
X3455670Y788410D01*
X3455670Y679444D01*
D11*
X3329927Y-222679D02*
G01*
X3216462Y-101005D01*
X3333851Y-105105D02*
G01*
X3212363Y-218394D01*
X2895600Y604514D02*
G01*
X2895600Y599688D01*
X2895600Y599688D02*
G01*
X2898393Y599688D01*
X2899918Y604514D02*
G01*
X2899918Y599688D01*
X2899918Y604514D02*
G01*
X2902965Y604514D01*
X2899918Y602228D02*
G01*
X2901695Y602228D01*
X2899918Y599688D02*
G01*
X2902965Y599688D01*
X2904490Y604514D02*
G01*
X2904490Y599688D01*
X2904490Y604514D02*
G01*
X2906013Y604514D01*
X2906775Y604260D01*
X2907284Y603752D01*
X2907538Y603498D01*
X2907538Y602736D01*
X2907538Y601466D01*
X2907538Y600958D01*
X2907284Y600450D01*
X2906775Y599942D01*
X2906013Y599688D01*
X2904490Y599688D01*
D10*
X13890243Y6767334D02*
G01*
X13879829Y6777748D01*
X13864336Y6782828D01*
X13843508Y6782828D01*
X13828013Y6777748D01*
X13817600Y6767334D01*
X13817600Y6756920D01*
X13822679Y6746506D01*
X13828013Y6741172D01*
X13838427Y6736092D01*
X13869670Y6725678D01*
X13879829Y6720598D01*
X13885163Y6715264D01*
X13890243Y6704850D01*
X13890243Y6689356D01*
X13879829Y6678942D01*
X13864336Y6673862D01*
X13843508Y6673862D01*
X13828013Y6678942D01*
X13817600Y6689356D01*
X13924534Y6782828D02*
G01*
X13950695Y6673862D01*
X13976604Y6782828D02*
G01*
X13950695Y6673862D01*
X13976604Y6782828D02*
G01*
X14002511Y6673862D01*
X14028420Y6782828D02*
G01*
X14002511Y6673862D01*
X14062709Y6762000D02*
G01*
X14073124Y6767334D01*
X14088872Y6782828D01*
X14088872Y6673862D01*
X2959100Y6795515D02*
G01*
X2959100Y6717537D01*
X2964179Y6702044D01*
X2974593Y6691629D01*
X2990341Y6686550D01*
X3000756Y6686550D01*
X3016250Y6691629D01*
X3026663Y6702044D01*
X3031743Y6717537D01*
X3031743Y6795515D01*
X3066034Y6774687D02*
G01*
X3076447Y6780021D01*
X3092195Y6795515D01*
X3092195Y6686550D01*
X6489700Y5703315D02*
G01*
X6489700Y5625337D01*
X6494779Y5609844D01*
X6505193Y5599429D01*
X6520941Y5594350D01*
X6531356Y5594350D01*
X6546850Y5599429D01*
X6557263Y5609844D01*
X6562343Y5625337D01*
X6562343Y5703315D01*
X6601968Y5677407D02*
G01*
X6601968Y5682487D01*
X6607047Y5692902D01*
X6612381Y5698236D01*
X6622795Y5703315D01*
X6643370Y5703315D01*
X6653784Y5698236D01*
X6659118Y5692902D01*
X6664197Y5682487D01*
X6664197Y5672073D01*
X6659118Y5661660D01*
X6648704Y5646165D01*
X6596634Y5594350D01*
X6669531Y5594350D01*
D11*
X5863336Y5416804D02*
G01*
X5903213Y5311902D01*
X5943345Y5416804D02*
G01*
X5903213Y5311902D01*
X5976365Y5416804D02*
G01*
X5976365Y5311902D01*
X5976365Y5416804D02*
G01*
X6016243Y5311902D01*
X6056375Y5416804D02*
G01*
X6016243Y5311902D01*
X6056375Y5416804D02*
G01*
X6056375Y5311902D01*
X5867400Y5167376D02*
G01*
X5907277Y5062473D01*
X5947409Y5167376D02*
G01*
X5907277Y5062473D01*
X6055359Y5142484D02*
G01*
X6050279Y5152389D01*
X6040374Y5162550D01*
X6030468Y5167376D01*
X6010402Y5167376D01*
X6000495Y5162550D01*
X5990336Y5152389D01*
X5985509Y5142484D01*
X5980429Y5127497D01*
X5980429Y5102352D01*
X5985509Y5087365D01*
X5990336Y5077460D01*
X6000495Y5067554D01*
X6010402Y5062473D01*
X6030468Y5062473D01*
X6040374Y5067554D01*
X6050279Y5077460D01*
X6055359Y5087365D01*
X6163309Y5142484D02*
G01*
X6158484Y5152389D01*
X6148324Y5162550D01*
X6138418Y5167376D01*
X6118352Y5167376D01*
X6108445Y5162550D01*
X6098286Y5152389D01*
X6093459Y5142484D01*
X6088379Y5127497D01*
X6088379Y5102352D01*
X6093459Y5087365D01*
X6098286Y5077460D01*
X6108445Y5067554D01*
X6118352Y5062473D01*
X6138418Y5062473D01*
X6148324Y5067554D01*
X6158484Y5077460D01*
X6163309Y5087365D01*
X5944361Y4888484D02*
G01*
X5939536Y4898389D01*
X5929375Y4908550D01*
X5919470Y4913376D01*
X5899404Y4913376D01*
X5889497Y4908550D01*
X5879338Y4898389D01*
X5874511Y4888484D01*
X5869431Y4873497D01*
X5869431Y4848352D01*
X5874511Y4833365D01*
X5879338Y4823460D01*
X5889497Y4813554D01*
X5899404Y4808473D01*
X5919470Y4808473D01*
X5929375Y4813554D01*
X5939536Y4823460D01*
X5944361Y4833365D01*
X5944361Y4848352D01*
X5919470Y4848352D02*
G01*
X5944361Y4848352D01*
X5977381Y4913376D02*
G01*
X5977381Y4808473D01*
X5977381Y4913376D02*
G01*
X6047486Y4808473D01*
X6047486Y4913376D02*
G01*
X6047486Y4808473D01*
X6080506Y4913376D02*
G01*
X6080506Y4808473D01*
X6080506Y4913376D02*
G01*
X6115558Y4913376D01*
X6130543Y4908550D01*
X6140450Y4898389D01*
X6145529Y4888484D01*
X6150356Y4873497D01*
X6150356Y4848352D01*
X6145529Y4833365D01*
X6140450Y4823460D01*
X6130543Y4813554D01*
X6115558Y4808473D01*
X6080506Y4808473D01*
X5909309Y4659376D02*
G01*
X5869431Y4554473D01*
X5909309Y4659376D02*
G01*
X5949441Y4554473D01*
X5884418Y4589526D02*
G01*
X5934456Y4589526D01*
X6012434Y4659376D02*
G01*
X5997447Y4654550D01*
X5987541Y4639310D01*
X5982461Y4614418D01*
X5982461Y4599431D01*
X5987541Y4574539D01*
X5997447Y4559554D01*
X6012434Y4554473D01*
X6022340Y4554473D01*
X6037325Y4559554D01*
X6047486Y4574539D01*
X6052311Y4599431D01*
X6052311Y4614418D01*
X6047486Y4639310D01*
X6037325Y4654550D01*
X6022340Y4659376D01*
X6012434Y4659376D01*
X6085331Y4639310D02*
G01*
X6095491Y4644389D01*
X6110477Y4659376D01*
X6110477Y4554473D01*
X5907277Y4403344D02*
G01*
X5867400Y4298442D01*
X5907277Y4403344D02*
G01*
X5947409Y4298442D01*
X5882386Y4333494D02*
G01*
X5932424Y4333494D01*
X6010402Y4403344D02*
G01*
X5995415Y4398518D01*
X5985509Y4383278D01*
X5980429Y4358386D01*
X5980429Y4343400D01*
X5985509Y4318507D01*
X5995415Y4303521D01*
X6010402Y4298442D01*
X6020308Y4298442D01*
X6035293Y4303521D01*
X6045454Y4318507D01*
X6050279Y4343400D01*
X6050279Y4358386D01*
X6045454Y4383278D01*
X6035293Y4398518D01*
X6020308Y4403344D01*
X6010402Y4403344D01*
X6088379Y4378452D02*
G01*
X6088379Y4383278D01*
X6093459Y4393437D01*
X6098286Y4398518D01*
X6108445Y4403344D01*
X6128511Y4403344D01*
X6138418Y4398518D01*
X6143497Y4393437D01*
X6148324Y4383278D01*
X6148324Y4373371D01*
X6143497Y4363465D01*
X6133338Y4348479D01*
X6083300Y4298442D01*
X6153404Y4298442D01*
X5867400Y4149344D02*
G01*
X5867400Y4044442D01*
X5867400Y4149344D02*
G01*
X5912358Y4149344D01*
X5927343Y4144518D01*
X5932424Y4139437D01*
X5937504Y4129278D01*
X5937504Y4119371D01*
X5932424Y4109465D01*
X5927343Y4104386D01*
X5912358Y4099305D01*
X5867400Y4099305D02*
G01*
X5912358Y4099305D01*
X5927343Y4094479D01*
X5932424Y4089400D01*
X5937504Y4079494D01*
X5937504Y4064507D01*
X5932424Y4054347D01*
X5927343Y4049521D01*
X5912358Y4044442D01*
X5867400Y4044442D01*
X6000495Y4149344D02*
G01*
X5985509Y4144518D01*
X5975350Y4129278D01*
X5970524Y4104386D01*
X5970524Y4089400D01*
X5975350Y4064507D01*
X5985509Y4049521D01*
X6000495Y4044442D01*
X6010402Y4044442D01*
X6025388Y4049521D01*
X6035293Y4064507D01*
X6040374Y4089400D01*
X6040374Y4104386D01*
X6035293Y4129278D01*
X6025388Y4144518D01*
X6010402Y4149344D01*
X6000495Y4149344D01*
X6078474Y4124452D02*
G01*
X6078474Y4129278D01*
X6083300Y4139437D01*
X6088379Y4144518D01*
X6098286Y4149344D01*
X6118352Y4149344D01*
X6128511Y4144518D01*
X6133338Y4139437D01*
X6138418Y4129278D01*
X6138418Y4119371D01*
X6133338Y4109465D01*
X6123431Y4094479D01*
X6073393Y4044442D01*
X6143497Y4044442D01*
X5869431Y3897376D02*
G01*
X5869431Y3792473D01*
X5869431Y3897376D02*
G01*
X5914390Y3897376D01*
X5929375Y3892550D01*
X5934456Y3887470D01*
X5939536Y3877310D01*
X5939536Y3867404D01*
X5934456Y3857497D01*
X5929375Y3852418D01*
X5914390Y3847337D01*
X5869431Y3847337D02*
G01*
X5914390Y3847337D01*
X5929375Y3842512D01*
X5934456Y3837431D01*
X5939536Y3827526D01*
X5939536Y3812539D01*
X5934456Y3802379D01*
X5929375Y3797554D01*
X5914390Y3792473D01*
X5869431Y3792473D01*
X6002527Y3897376D02*
G01*
X5987541Y3892550D01*
X5977381Y3877310D01*
X5972556Y3852418D01*
X5972556Y3837431D01*
X5977381Y3812539D01*
X5987541Y3797554D01*
X6002527Y3792473D01*
X6012434Y3792473D01*
X6027420Y3797554D01*
X6037325Y3812539D01*
X6042406Y3837431D01*
X6042406Y3852418D01*
X6037325Y3877310D01*
X6027420Y3892550D01*
X6012434Y3897376D01*
X6002527Y3897376D01*
X6075425Y3877310D02*
G01*
X6085331Y3882389D01*
X6100318Y3897376D01*
X6100318Y3792473D01*
X5942329Y3618484D02*
G01*
X5937504Y3628389D01*
X5927343Y3638550D01*
X5917438Y3643376D01*
X5897372Y3643376D01*
X5887465Y3638550D01*
X5877306Y3628389D01*
X5872479Y3618484D01*
X5867400Y3603497D01*
X5867400Y3578352D01*
X5872479Y3563365D01*
X5877306Y3553460D01*
X5887465Y3543554D01*
X5897372Y3538473D01*
X5917438Y3538473D01*
X5927343Y3543554D01*
X5937504Y3553460D01*
X5942329Y3563365D01*
X5942329Y3578352D01*
X5917438Y3578352D02*
G01*
X5942329Y3578352D01*
X5975350Y3643376D02*
G01*
X5975350Y3538473D01*
X5975350Y3643376D02*
G01*
X6045454Y3538473D01*
X6045454Y3643376D02*
G01*
X6045454Y3538473D01*
X6078474Y3643376D02*
G01*
X6078474Y3538473D01*
X6078474Y3643376D02*
G01*
X6113525Y3643376D01*
X6128511Y3638550D01*
X6138418Y3628389D01*
X6143497Y3618484D01*
X6148324Y3603497D01*
X6148324Y3578352D01*
X6143497Y3563365D01*
X6138418Y3553460D01*
X6128511Y3543554D01*
X6113525Y3538473D01*
X6078474Y3538473D01*
X6682209Y5418711D02*
G01*
X6682209Y5313809D01*
X6682209Y5418711D02*
G01*
X6727167Y5418711D01*
X6742153Y5413885D01*
X6747233Y5408805D01*
X6752313Y5398645D01*
X6752313Y5383659D01*
X6747233Y5373753D01*
X6742153Y5368673D01*
X6727167Y5363847D01*
X6682209Y5363847D01*
X6785333Y5418711D02*
G01*
X6810225Y5313809D01*
X6835117Y5418711D02*
G01*
X6810225Y5313809D01*
X6835117Y5418711D02*
G01*
X6860263Y5313809D01*
X6885155Y5418711D02*
G01*
X6860263Y5313809D01*
X6918175Y5418711D02*
G01*
X6918175Y5313809D01*
X6918175Y5418711D02*
G01*
X6958307Y5313809D01*
X6998185Y5418711D02*
G01*
X6958307Y5313809D01*
X6998185Y5418711D02*
G01*
X6998185Y5313809D01*
X7071083Y5418711D02*
G01*
X7031205Y5313809D01*
X7071083Y5418711D02*
G01*
X7111215Y5313809D01*
X7046191Y5348861D02*
G01*
X7096229Y5348861D01*
X6722109Y5150612D02*
G01*
X6682231Y5045710D01*
X6722109Y5150612D02*
G01*
X6762241Y5045710D01*
X6697218Y5080762D02*
G01*
X6747256Y5080762D01*
X6795261Y5150612D02*
G01*
X6795261Y5045710D01*
X6828281Y5150612D02*
G01*
X6828281Y5045710D01*
X6828281Y5150612D02*
G01*
X6898131Y5045710D01*
X6898131Y5150612D02*
G01*
X6898131Y5045710D01*
X6936231Y5125720D02*
G01*
X6936231Y5130545D01*
X6941311Y5140705D01*
X6946138Y5145786D01*
X6956297Y5150612D01*
X6976109Y5150612D01*
X6986270Y5145786D01*
X6991350Y5140705D01*
X6996175Y5130545D01*
X6996175Y5120639D01*
X6991350Y5110734D01*
X6981190Y5095747D01*
X6931152Y5045710D01*
X7001256Y5045710D01*
X6720077Y4898644D02*
G01*
X6680200Y4793742D01*
X6720077Y4898644D02*
G01*
X6760209Y4793742D01*
X6695186Y4828794D02*
G01*
X6745224Y4828794D01*
X6793229Y4898644D02*
G01*
X6793229Y4793742D01*
X6826250Y4898644D02*
G01*
X6826250Y4793742D01*
X6826250Y4898644D02*
G01*
X6896100Y4793742D01*
X6896100Y4898644D02*
G01*
X6896100Y4793742D01*
X6929120Y4878578D02*
G01*
X6939279Y4883657D01*
X6954265Y4898644D01*
X6954265Y4793742D01*
X6752336Y4627626D02*
G01*
X6742175Y4637786D01*
X6727190Y4642612D01*
X6707124Y4642612D01*
X6692138Y4637786D01*
X6682231Y4627626D01*
X6682231Y4617720D01*
X6687311Y4607560D01*
X6692138Y4602734D01*
X6702297Y4597654D01*
X6732270Y4587747D01*
X6742175Y4582668D01*
X6747256Y4577587D01*
X6752336Y4567681D01*
X6752336Y4552695D01*
X6742175Y4542789D01*
X6727190Y4537710D01*
X6707124Y4537710D01*
X6692138Y4542789D01*
X6682231Y4552695D01*
X6820154Y4642612D02*
G01*
X6820154Y4537710D01*
X6785356Y4642612D02*
G01*
X6855206Y4642612D01*
X6888225Y4642612D02*
G01*
X6888225Y4537710D01*
X6888225Y4642612D02*
G01*
X6933184Y4642612D01*
X6948170Y4637786D01*
X6953250Y4632705D01*
X6958329Y4622545D01*
X6958329Y4612639D01*
X6953250Y4602734D01*
X6948170Y4597654D01*
X6933184Y4592573D01*
X6888225Y4592573D02*
G01*
X6933184Y4592573D01*
X6948170Y4587747D01*
X6953250Y4582668D01*
X6958329Y4572762D01*
X6958329Y4557776D01*
X6953250Y4547615D01*
X6948170Y4542789D01*
X6933184Y4537710D01*
X6888225Y4537710D01*
X6991350Y4642612D02*
G01*
X7031227Y4592573D01*
X7031227Y4537710D01*
X7071106Y4642612D02*
G01*
X7031227Y4592573D01*
X6680200Y4388612D02*
G01*
X6680200Y4283710D01*
X6680200Y4388612D02*
G01*
X6725158Y4388612D01*
X6740143Y4383786D01*
X6745224Y4378705D01*
X6750304Y4368545D01*
X6750304Y4358639D01*
X6745224Y4348734D01*
X6740143Y4343654D01*
X6725158Y4338573D01*
X6680200Y4338573D02*
G01*
X6725158Y4338573D01*
X6740143Y4333747D01*
X6745224Y4328668D01*
X6750304Y4318762D01*
X6750304Y4303776D01*
X6745224Y4293615D01*
X6740143Y4288789D01*
X6725158Y4283710D01*
X6680200Y4283710D01*
X6783324Y4388612D02*
G01*
X6783324Y4283710D01*
X6816090Y4388612D02*
G01*
X6816090Y4283710D01*
X6816090Y4388612D02*
G01*
X6886193Y4283710D01*
X6886193Y4388612D02*
G01*
X6886193Y4283710D01*
X6919213Y4368545D02*
G01*
X6929120Y4373626D01*
X6944106Y4388612D01*
X6944106Y4283710D01*
X6680200Y4134612D02*
G01*
X6680200Y4029710D01*
X6680200Y4134612D02*
G01*
X6725158Y4134612D01*
X6740143Y4129786D01*
X6745224Y4124705D01*
X6750304Y4114545D01*
X6750304Y4104639D01*
X6745224Y4094734D01*
X6740143Y4089654D01*
X6725158Y4084573D01*
X6680200Y4084573D02*
G01*
X6725158Y4084573D01*
X6740143Y4079747D01*
X6745224Y4074668D01*
X6750304Y4064762D01*
X6750304Y4049776D01*
X6745224Y4039615D01*
X6740143Y4034789D01*
X6725158Y4029710D01*
X6680200Y4029710D01*
X6783324Y4134612D02*
G01*
X6783324Y4029710D01*
X6816090Y4134612D02*
G01*
X6816090Y4029710D01*
X6816090Y4134612D02*
G01*
X6886193Y4029710D01*
X6886193Y4134612D02*
G01*
X6886193Y4029710D01*
X6924293Y4109720D02*
G01*
X6924293Y4114545D01*
X6929120Y4124705D01*
X6934200Y4129786D01*
X6944106Y4134612D01*
X6964172Y4134612D01*
X6974077Y4129786D01*
X6979158Y4124705D01*
X6984238Y4114545D01*
X6984238Y4104639D01*
X6979158Y4094734D01*
X6969252Y4079747D01*
X6919213Y4029710D01*
X6989318Y4029710D01*
X6680200Y3880612D02*
G01*
X6680200Y3775710D01*
X6680200Y3880612D02*
G01*
X6725158Y3880612D01*
X6740143Y3875786D01*
X6745224Y3870705D01*
X6750304Y3860545D01*
X6750304Y3845560D01*
X6745224Y3835654D01*
X6740143Y3830573D01*
X6725158Y3825747D01*
X6680200Y3825747D01*
X6783324Y3880612D02*
G01*
X6808215Y3775710D01*
X6833108Y3880612D02*
G01*
X6808215Y3775710D01*
X6833108Y3880612D02*
G01*
X6858254Y3775710D01*
X6883145Y3880612D02*
G01*
X6858254Y3775710D01*
X6916165Y3880612D02*
G01*
X6916165Y3775710D01*
X6916165Y3880612D02*
G01*
X6956297Y3775710D01*
X6996175Y3880612D02*
G01*
X6956297Y3775710D01*
X6996175Y3880612D02*
G01*
X6996175Y3775710D01*
X7029195Y3880612D02*
G01*
X7029195Y3775710D01*
X7029195Y3880612D02*
G01*
X7074154Y3880612D01*
X7089140Y3875786D01*
X7094220Y3870705D01*
X7099300Y3860545D01*
X7099300Y3850639D01*
X7094220Y3840734D01*
X7089140Y3835654D01*
X7074154Y3830573D01*
X7029195Y3830573D02*
G01*
X7074154Y3830573D01*
X7089140Y3825747D01*
X7094220Y3820668D01*
X7099300Y3810762D01*
X7099300Y3795776D01*
X7094220Y3785615D01*
X7089140Y3780789D01*
X7074154Y3775710D01*
X7029195Y3775710D01*
X6757161Y3601720D02*
G01*
X6752336Y3611626D01*
X6742175Y3621786D01*
X6732270Y3626612D01*
X6712204Y3626612D01*
X6702297Y3621786D01*
X6692138Y3611626D01*
X6687311Y3601720D01*
X6682231Y3586734D01*
X6682231Y3561587D01*
X6687311Y3546602D01*
X6692138Y3536695D01*
X6702297Y3526789D01*
X6712204Y3521710D01*
X6732270Y3521710D01*
X6742175Y3526789D01*
X6752336Y3536695D01*
X6757161Y3546602D01*
X6757161Y3561587D01*
X6732270Y3561587D02*
G01*
X6757161Y3561587D01*
X6790181Y3626612D02*
G01*
X6790181Y3521710D01*
X6790181Y3626612D02*
G01*
X6860286Y3521710D01*
X6860286Y3626612D02*
G01*
X6860286Y3521710D01*
X6893306Y3626612D02*
G01*
X6893306Y3521710D01*
X6893306Y3626612D02*
G01*
X6928358Y3626612D01*
X6943343Y3621786D01*
X6953250Y3611626D01*
X6958329Y3601720D01*
X6963156Y3586734D01*
X6963156Y3561587D01*
X6958329Y3546602D01*
X6953250Y3536695D01*
X6943343Y3526789D01*
X6928358Y3521710D01*
X6893306Y3521710D01*
D10*
X4991100Y369315D02*
G01*
X4991100Y291337D01*
X4996179Y275844D01*
X5006593Y265429D01*
X5022341Y260350D01*
X5032756Y260350D01*
X5048250Y265429D01*
X5058663Y275844D01*
X5063743Y291337D01*
X5063743Y369315D01*
X5108447Y369315D02*
G01*
X5165597Y369315D01*
X5134609Y327660D01*
X5150104Y327660D01*
X5160518Y322579D01*
X5165597Y317500D01*
X5170931Y301752D01*
X5170931Y291337D01*
X5165597Y275844D01*
X5155184Y265429D01*
X5139690Y260350D01*
X5124195Y260350D01*
X5108447Y265429D01*
X5103368Y270510D01*
X5098034Y280923D01*
X7123684Y279400D02*
G01*
X7201661Y279400D01*
X7217156Y284479D01*
X7227570Y294894D01*
X7232650Y310642D01*
X7232650Y321055D01*
X7227570Y336550D01*
X7217156Y346963D01*
X7201661Y352044D01*
X7123684Y352044D01*
X7123684Y438404D02*
G01*
X7196327Y386334D01*
X7196327Y464312D01*
X7123684Y438404D02*
G01*
X7232650Y438404D01*
D11*
X7313422Y339344D02*
G01*
X7313422Y247142D01*
X7396479Y237744D01*
X7387336Y247142D01*
X7377938Y274828D01*
X7377938Y302513D01*
X7387336Y330200D01*
X7405624Y348742D01*
X7433309Y357886D01*
X7451852Y357886D01*
X7479538Y348742D01*
X7498079Y330200D01*
X7507224Y302513D01*
X7507224Y274828D01*
X7498079Y247142D01*
X7488936Y237744D01*
X7470393Y228600D01*
X7377938Y418845D02*
G01*
X7507224Y474218D01*
X7377938Y529589D02*
G01*
X7507224Y474218D01*
X8121650Y367029D02*
G01*
X8103108Y357886D01*
X8084565Y339344D01*
X8075422Y321055D01*
X8075422Y283971D01*
X8084565Y265429D01*
X8103108Y247142D01*
X8121650Y237744D01*
X8149336Y228600D01*
X8195309Y228600D01*
X8223250Y237744D01*
X8241538Y247142D01*
X8260079Y265429D01*
X8269224Y283971D01*
X8269224Y321055D01*
X8260079Y339344D01*
X8241538Y357886D01*
X8223250Y367029D01*
X8195309Y367029D01*
X8195309Y321055D02*
G01*
X8195309Y367029D01*
X8075422Y427989D02*
G01*
X8269224Y427989D01*
X8075422Y427989D02*
G01*
X8269224Y557529D01*
X8075422Y557529D02*
G01*
X8269224Y557529D01*
X8075422Y618489D02*
G01*
X8269224Y618489D01*
X8075422Y618489D02*
G01*
X8075422Y683005D01*
X8084565Y710692D01*
X8103108Y729234D01*
X8121650Y738378D01*
X8149336Y747776D01*
X8195309Y747776D01*
X8223250Y738378D01*
X8241538Y729234D01*
X8260079Y710692D01*
X8269224Y683005D01*
X8269224Y618489D01*
X7567422Y293370D02*
G01*
X7761224Y293370D01*
X7567422Y228600D02*
G01*
X7567422Y357886D01*
X7631938Y418845D02*
G01*
X7761224Y418845D01*
X7687309Y418845D02*
G01*
X7659624Y427989D01*
X7641336Y446531D01*
X7631938Y465073D01*
X7631938Y492760D01*
X7567422Y553720D02*
G01*
X7576565Y562863D01*
X7567422Y572262D01*
X7558024Y562863D01*
X7567422Y553720D01*
X7631938Y562863D02*
G01*
X7761224Y562863D01*
X7631938Y743965D02*
G01*
X7779765Y743965D01*
X7807452Y734821D01*
X7816850Y725423D01*
X7825993Y707136D01*
X7825993Y679450D01*
X7816850Y660907D01*
X7659624Y743965D02*
G01*
X7641336Y725423D01*
X7631938Y707136D01*
X7631938Y679450D01*
X7641336Y660907D01*
X7659624Y642365D01*
X7687309Y633221D01*
X7705852Y633221D01*
X7733538Y642365D01*
X7752079Y660907D01*
X7761224Y679450D01*
X7761224Y707136D01*
X7752079Y725423D01*
X7733538Y743965D01*
X7821422Y266700D02*
G01*
X8015224Y266700D01*
X7821422Y266700D02*
G01*
X7821422Y386842D01*
X7913624Y266700D02*
G01*
X7913624Y340613D01*
X8015224Y266700D02*
G01*
X8015224Y386842D01*
X7913624Y558545D02*
G01*
X7895336Y540004D01*
X7885938Y521715D01*
X7885938Y494029D01*
X7895336Y475487D01*
X7913624Y456945D01*
X7941309Y447802D01*
X7959852Y447802D01*
X7987538Y456945D01*
X8006079Y475487D01*
X8015224Y494029D01*
X8015224Y521715D01*
X8006079Y540004D01*
X7987538Y558545D01*
X7821422Y619505D02*
G01*
X8015224Y619505D01*
X7923022Y619505D02*
G01*
X7895336Y647192D01*
X7885938Y665734D01*
X7885938Y693420D01*
X7895336Y711962D01*
X7923022Y721105D01*
X8015224Y721105D01*
D10*
X14797018Y4127500D02*
G01*
X14719040Y4127500D01*
X14703546Y4122420D01*
X14693132Y4112005D01*
X14688052Y4096257D01*
X14688052Y4085844D01*
X14693132Y4070350D01*
X14703546Y4059936D01*
X14719040Y4054855D01*
X14797018Y4054855D01*
X14797018Y3958081D02*
G01*
X14797018Y4010152D01*
X14750282Y4015231D01*
X14755362Y4010152D01*
X14760696Y3994404D01*
X14760696Y3978910D01*
X14755362Y3963415D01*
X14745202Y3953002D01*
X14729454Y3947668D01*
X14719040Y3947668D01*
X14703546Y3953002D01*
X14693132Y3963415D01*
X14688052Y3978910D01*
X14688052Y3994404D01*
X14693132Y4010152D01*
X14698212Y4015231D01*
X14708626Y4020565D01*
D12*
X1092233Y431797D02*
G01*
X1168433Y431797D01*
X1130333Y482597D02*
G01*
X1130333Y393697D01*
D11*
X1276350Y1435100D02*
G01*
X1289050Y1435100D01*
X1289050Y6515100D01*
X1022350Y6515100D01*
X1022350Y1435100D01*
X1276350Y1435100D01*
X4895850Y1435100D02*
G01*
X4908550Y1435100D01*
X4908550Y6515100D01*
X4641850Y6515100D01*
X4641850Y1435100D01*
X4895850Y1435100D01*
X12865100Y6621779D02*
G01*
X12865100Y6370320D01*
X12357100Y6370320D01*
X12357100Y6621779D01*
X12865100Y6621779D01*
X6261100Y6370320D02*
G01*
X6261100Y6621779D01*
X6769100Y6621779D01*
X6769100Y6370320D01*
X6261100Y6370320D01*
X14655800Y4826000D02*
G01*
X14401800Y4826000D01*
X14401800Y5842000D01*
X14655800Y5842000D01*
X14655800Y5651500D01*
D13*
X14655800Y4826000D02*
G01*
X14655800Y5651500D01*
D11*
X12661900Y5765800D02*
G01*
X12407900Y5765800D01*
X12407900Y6019800D01*
X12661900Y6019800D01*
X12661900Y5829300D01*
D13*
X12661900Y5765800D02*
G01*
X12661900Y5829300D01*
D11*
X12661900Y3568700D02*
G01*
X12407900Y3568700D01*
X12407900Y3822700D01*
X12661900Y3822700D01*
X12661900Y3632200D01*
D13*
X12661900Y3568700D02*
G01*
X12661900Y3632200D01*
D11*
X8153400Y5778500D02*
G01*
X7899400Y5778500D01*
X7899400Y6032500D01*
X8153400Y6032500D01*
X8153400Y5842000D01*
D13*
X8153400Y5778500D02*
G01*
X8153400Y5842000D01*
D11*
X8153400Y3581400D02*
G01*
X7899400Y3581400D01*
X7899400Y3835400D01*
X8153400Y3835400D01*
X8153400Y3644900D01*
D13*
X8153400Y3581400D02*
G01*
X8153400Y3644900D01*
D11*
X8153400Y812800D02*
G01*
X7899400Y812800D01*
X7899400Y1066800D01*
X8153400Y1066800D01*
X8153400Y876300D01*
D13*
X8153400Y812800D02*
G01*
X8153400Y876300D01*
D11*
X8153400Y3035300D02*
G01*
X7899400Y3035300D01*
X7899400Y3289300D01*
X8153400Y3289300D01*
X8153400Y3098800D01*
D13*
X8153400Y3035300D02*
G01*
X8153400Y3098800D01*
D11*
X12661900Y838200D02*
G01*
X12407900Y838200D01*
X12407900Y1092200D01*
X12661900Y1092200D01*
X12661900Y901700D01*
D13*
X12661900Y838200D02*
G01*
X12661900Y901700D01*
D11*
X12661900Y3035300D02*
G01*
X12407900Y3035300D01*
X12407900Y3289300D01*
X12661900Y3289300D01*
X12661900Y3098800D01*
D13*
X12661900Y3035300D02*
G01*
X12661900Y3098800D01*
D12*
X13272053Y731812D02*
G01*
X13872052Y731812D01*
X13272053Y131838D02*
G01*
X13272053Y731837D01*
X13872052Y131813D02*
G01*
X13272053Y131813D01*
X13872052Y731812D02*
G01*
X13872052Y131813D01*
X13288987Y1688546D02*
G01*
X13888986Y1688546D01*
X13288987Y1088572D02*
G01*
X13288987Y1688571D01*
X13888986Y1088547D02*
G01*
X13288987Y1088547D01*
X13888986Y1688546D02*
G01*
X13888986Y1088547D01*
X13263587Y2645277D02*
G01*
X13863586Y2645277D01*
X13263587Y2045304D02*
G01*
X13263587Y2645303D01*
X13863586Y2045279D02*
G01*
X13263587Y2045279D01*
X13863586Y2645277D02*
G01*
X13863586Y2045279D01*
X13280522Y3602012D02*
G01*
X13880520Y3602012D01*
X13280522Y3002038D02*
G01*
X13280522Y3602037D01*
X13880520Y3002013D02*
G01*
X13280522Y3002013D01*
X13880520Y3602012D02*
G01*
X13880520Y3002013D01*
X13867599Y6087313D02*
G01*
X13867599Y6037313D01*
X13767600Y6087313D02*
G01*
X13767600Y6037313D01*
X13667600Y6037313D02*
G01*
X13667600Y6087313D01*
X13967599Y6087313D01*
X13967599Y6037313D01*
X13517600Y6637312D02*
G01*
X14117599Y6637312D01*
X14117599Y6037313D01*
X13517600Y6037313D01*
X13517600Y6637312D01*
X13667613Y6537312D02*
G01*
X13967612Y6537312D01*
X13967612Y6137313D01*
X13667613Y6137313D01*
X13667613Y6537312D01*
X13717600Y6487299D02*
G01*
X13917599Y6487299D01*
X13917599Y6187300D01*
X13717600Y6187300D01*
X13717600Y6487299D01*
X2082800Y1435100D02*
G01*
X2336800Y1435100D01*
X2336800Y2451100D01*
X2336800Y6515100D01*
X2082800Y6515100D01*
X2082800Y2451100D01*
X2082800Y1435100D01*
X3606800Y1435100D02*
G01*
X3860800Y1435100D01*
X3860800Y2451100D01*
X3860800Y6515100D01*
X3606800Y6515100D01*
X3606800Y2451100D01*
X3606800Y1435100D01*
X3860800Y6261100D02*
G01*
X3606800Y6261100D01*
X2336800Y6261100D02*
G01*
X2082800Y6261100D01*
X1828800Y6642100D02*
G01*
X4114800Y6642100D01*
X4114800Y1308100D01*
X1828800Y1308100D01*
X1828800Y6642100D01*
X5854700Y5511800D02*
G01*
X5854700Y3352800D01*
X7124700Y3352800D01*
X7124700Y5524500D01*
X5854700Y5524500D01*
X4356100Y228600D02*
G01*
X5626100Y228600D01*
X5626100Y-279400D01*
X4356100Y-279400D01*
X4356100Y228600D01*
X7264400Y-279400D02*
G01*
X7264400Y228600D01*
X8534400Y228600D01*
X8534400Y-279400D01*
X7264400Y-279400D01*
X14634301Y4332498D02*
G01*
X14634301Y3922501D01*
X14634301Y3922501D02*
G01*
X14424301Y3922501D01*
X14423303Y3922499D02*
G01*
X14423303Y4332493D01*
X14423303Y4332493D02*
G01*
X14633303Y4332493D01*
G75*
G01*
X3124210Y566704D02*
G03*
X3124944Y566704I367J-299999D01*
G75*
G01*
X2844800Y6642100D02*
G03*
X3098800Y6629400I127000J-6350D01*
G75*
G01
X2133600Y266700D02*
G03X2133600Y266700I-596900J0D01*
G75*
G01
X1616989Y266700D02*
G03X1616989Y266700I-75006J0D01*
G75*
G01
X13394258Y647700D02*
G03X13394258Y647700I-38100J0D01*
G75*
G01
X13826058Y647700D02*
G03X13826058Y647700I-38100J0D01*
G75*
G01
X13406958Y228600D02*
G03X13406958Y228600I-38100J0D01*
G75*
G01
X13813358Y228600D02*
G03X13813358Y228600I-38100J0D01*
G75*
G01
X13749858Y431800D02*
G03X13749858Y431800I-177800J0D01*
G75*
G01
X13699058Y431800D02*
G03X13699058Y431800I-127000J0D01*
G75*
G01
X13411200Y1604442D02*
G03X13411200Y1604442I-38100J0D01*
G75*
G01
X13843000Y1604442D02*
G03X13843000Y1604442I-38100J0D01*
G75*
G01
X13423900Y1185342D02*
G03X13423900Y1185342I-38100J0D01*
G75*
G01
X13830300Y1185342D02*
G03X13830300Y1185342I-38100J0D01*
G75*
G01
X13766800Y1388542D02*
G03X13766800Y1388542I-177800J0D01*
G75*
G01
X13716000Y1388542D02*
G03X13716000Y1388542I-127000J0D01*
G75*
G01
X13385800Y2561184D02*
G03X13385800Y2561184I-38100J0D01*
G75*
G01
X13817600Y2561184D02*
G03X13817600Y2561184I-38100J0D01*
G75*
G01
X13398500Y2142084D02*
G03X13398500Y2142084I-38100J0D01*
G75*
G01
X13804900Y2142084D02*
G03X13804900Y2142084I-38100J0D01*
G75*
G01
X13741400Y2345284D02*
G03X13741400Y2345284I-177800J0D01*
G75*
G01
X13690600Y2345284D02*
G03X13690600Y2345284I-127000J0D01*
G75*
G01
X13402716Y3517900D02*
G03X13402716Y3517900I-38100J0D01*
G75*
G01
X13834516Y3517900D02*
G03X13834516Y3517900I-38100J0D01*
G75*
G01
X13415416Y3098800D02*
G03X13415416Y3098800I-38100J0D01*
G75*
G01
X13821816Y3098800D02*
G03X13821816Y3098800I-38100J0D01*
G75*
G01
X13758316Y3302000D02*
G03X13758316Y3302000I-177800J0D01*
G75*
G01
X13707516Y3302000D02*
G03X13707516Y3302000I-127000J0D01*
G75*
G01
X13867613Y6337300D02*
G03X13867613Y6337300I-50013J0D01*
M02*
